<?xml version="1.0" standalone="no"?>
<!DOCTYPE svg PUBLIC "-//W3C//DTD SVG 20010904//EN"
 "http://www.w3.org/TR/2001/REC-SVG-20010904/DTD/svg10.dtd">
<svg version="1.0" xmlns="http://www.w3.org/2000/svg"
 width="1624.000000pt" height="631.000000pt" viewBox="0 0 1624.000000 631.000000"
 preserveAspectRatio="xMidYMid meet">

<g transform="translate(0.000000,631.000000) scale(0.100000,-0.100000)"
fill="#000000" stroke="none">
<path d="M7090 5461 c-378 -382 -282 -311 -1035 -766 -625 -377 -1022 -618
-1436 -871 -175 -107 -319 -194 -322 -194 -3 0 -137 169 -297 375 l-291 375
-421 0 c-335 0 -418 -3 -411 -12 5 -7 92 -121 193 -253 101 -132 287 -374 413
-538 190 -248 227 -301 216 -311 -8 -7 -108 -70 -224 -141 -115 -70 -223 -138
-240 -150 -26 -19 -39 -49 -95 -218 -35 -108 -66 -195 -68 -193 -2 2 4 75 12
162 9 87 16 161 16 165 0 4 -96 -51 -212 -123 -117 -72 -289 -175 -382 -230
-93 -54 -184 -111 -203 -126 -20 -15 -106 -133 -199 -273 -127 -192 -176 -257
-221 -295 -283 -239 -1569 -1339 -1603 -1371 -17 -16 349 190 780 439 157 90
510 294 785 453 1195 689 2213 1280 2291 1332 20 13 25 9 85 -69 244 -318 477
-617 496 -635 l22 -23 426 0 c234 0 425 3 425 6 0 8 -5 14 -478 612 -206 260
-373 474 -371 476 2 1 198 119 434 261 237 143 467 282 513 311 l83 52 -48 10
c-26 5 -133 23 -237 38 l-190 28 -70 -39 c-39 -21 -209 -121 -378 -222 -169
-100 -311 -183 -316 -183 -5 0 -17 11 -25 24 -15 23 -15 25 7 40 47 30 612
373 663 401 l51 29 281 -33 c176 -21 298 -31 327 -27 53 7 80 22 357 189 119
72 207 132 221 151 25 32 169 274 671 1126 163 278 306 520 317 538 11 17 18
32 16 32 -2 0 -150 -148 -328 -329z m-3155 -2463 c14 -21 14 -24 -2 -36 -21
-16 -592 -358 -713 -427 -47 -27 -151 -91 -232 -141 -82 -51 -142 -85 -135
-75 62 86 182 199 218 206 11 2 39 15 62 28 87 49 742 449 752 458 15 15 33
10 50 -13z"/>
<path d="M14325 5455 c-16 -7 -352 -159 -745 -338 -681 -309 -1350 -611 -1620
-730 -151 -67 -156 -74 -146 -207 7 -98 16 -78 -145 -323 -50 -77 -89 -141
-86 -143 2 -2 435 213 963 478 732 368 970 492 1004 523 25 23 113 98 195 167
212 178 646 590 618 587 -4 0 -21 -7 -38 -14z"/>
<path d="M7515 4369 c-127 -18 -290 -81 -395 -152 -137 -93 -189 -152 -452
-517 -101 -140 -308 -426 -459 -635 -331 -458 -363 -504 -358 -510 7 -7 881
294 1057 364 51 20 67 21 637 21 322 0 585 -3 585 -6 0 -3 -55 -107 -122 -232
-201 -376 -238 -446 -238 -453 0 -7 550 -342 554 -337 6 7 273 520 434 833 93
182 287 560 432 840 144 281 293 569 331 642 38 72 69 136 69 142 0 13 -1982
13 -2075 0z m1105 -526 c0 -4 -45 -89 -100 -189 l-101 -181 -560 -8 c-308 -4
-563 -5 -566 -2 -7 8 28 66 91 150 56 76 137 142 221 181 108 51 138 54 593
55 232 1 422 -2 422 -6z"/>
<path d="M9892 4328 c-100 -175 -516 -968 -511 -972 2 -2 77 -36 166 -76 90
-40 161 -75 159 -77 -2 -2 -68 12 -147 31 -79 19 -162 38 -184 41 l-40 7 -277
-531 c-153 -291 -278 -534 -278 -538 1 -8 561 -346 565 -341 1 2 66 127 145
278 135 260 420 802 425 808 1 1 132 -70 291 -159 159 -88 348 -192 420 -230
l131 -69 94 0 c52 0 150 5 218 10 69 5 126 8 128 6 2 -2 -74 -22 -169 -46 -95
-23 -181 -44 -192 -47 -12 -3 158 -94 495 -265 283 -143 712 -362 954 -487
647 -335 705 -364 711 -358 6 5 -387 488 -446 547 -35 35 -220 145 -833 493
-174 99 -316 181 -314 183 1 1 95 4 210 5 114 1 207 5 206 8 0 3 -73 53 -162
111 -433 281 -927 606 -927 610 0 3 125 67 278 144 395 197 460 235 503 293
120 160 273 371 282 390 8 18 5 37 -17 90 -14 38 -30 74 -35 81 -6 10 -148
-50 -607 -258 -329 -150 -659 -299 -732 -332 -73 -33 -135 -59 -137 -57 -3 4
53 109 288 537 64 117 117 215 117 217 0 3 -168 5 -374 5 l-375 0 -29 -52z"/>
<path d="M13561 4364 c-93 -20 -254 -102 -335 -171 -101 -84 -156 -164 -316
-451 -79 -141 -245 -437 -370 -657 -273 -480 -304 -540 -287 -552 7 -6 60 -36
119 -68 l106 -59 -44 -81 c-90 -166 -76 -282 41 -336 38 -18 89 -19 1030 -19
632 0 1006 4 1034 11 84 19 154 61 231 139 61 61 90 102 158 225 160 287 399
732 517 960 65 127 158 305 207 397 48 92 88 173 88 181 0 7 -54 39 -120 72
-66 33 -120 60 -120 61 0 2 43 79 95 173 52 94 95 175 95 181 0 7 -328 10
-1032 9 -843 0 -1045 -3 -1097 -15z m1350 -671 c-43 -87 -129 -255 -191 -373
-93 -179 -110 -218 -101 -236 5 -12 71 -124 146 -249 75 -125 135 -229 133
-230 -2 -2 -74 91 -161 206 -87 115 -161 209 -165 209 -4 0 -54 -93 -112 -207
-116 -227 -135 -255 -191 -283 -37 -19 -63 -20 -654 -20 -338 0 -615 1 -615 3
0 2 87 166 194 365 106 199 190 362 185 362 -13 0 -419 -142 -538 -189 -58
-22 -106 -39 -108 -37 -2 2 149 79 337 172 l340 168 106 205 c58 113 115 217
127 230 12 13 40 32 62 42 38 17 79 19 663 19 l622 0 -79 -157z"/>
<path d="M6680 2779 c-107 -38 -343 -121 -525 -183 -181 -63 -338 -117 -348
-121 -18 -7 -137 -167 -137 -184 0 -8 424 -708 438 -723 8 -8 124 178 427 682
111 184 234 388 274 453 78 128 88 147 75 146 -5 0 -97 -31 -204 -70z"/>
</g>
</svg>
